# xmcd CD database file
#
# Track frame offsets:
#	150
#	12729
#	21663
#	33777
#	44331
#	50697
#	59601
#	70118
#	77892
#	90461
#	97060
#	105889
#	117641
#	130132
#	138481
#	146810
#	158876
#	167497
#	178281
#	189770
#	205007
#	214801
#	228100
#	239257
#	250203
#	259577
#	269194
#	277328
#
# Disc length: 3810 seconds
#
# Revision: 0
# Processed by: cddbd v1.5.2PL0 Copyright (c) Steve Scherf et al.
# Submitted via: CDex 1.82
#
DISCID=a60ee01c
DTITLE=Gene autry - Supreme Legends
DYEAR=2014
DGENRE=Country
TTITLE0=My Old Kentucky Home
TTITLE1=In A Little Spanish Town
TTITLE2=Dixie Cannon Ball
TTITLE3=Down In The Valley
TTITLE4=Cowboy Blues
TTITLE5=You Are My Sunshine
TTITLE6=San Antonio Rose
TTITLE7=Rancho Pillow
TTITLE8=You belong To My Heart
TTITLE9=My Adobe Hacienda
TTITLE10=A Boy From Texas A Girl From Tennessee
TTITLE11=Vaya Con Dois
TTITLE12=Missouri Waltz
TTITLE13=The Gay Ranchero
TTITLE14=Kentucky Baby
TTITLE15=I Hang My Head And Cry
TTITLE16=Goodbye Little Darling
TTITLE17=Trouble Mind
TTITLE18=Lonely River
TTITLE19=When The Day is Done
TTITLE20=The West A Nest And You
TTITLE21=Under Fiesta Stars
TTITLE22=You're The Lonely Star
TTITLE23=You're The Only Good Thing
TTITLE24=It Happened In Monteray
TTITLE25=There's No Back Door From Heaven
TTITLE26=Don't Bite The Hand
TTITLE27=Tweedle O'Twill
EXTD=YEAR: 2014
EXTT0=
EXTT1=
EXTT2=
EXTT3=
EXTT4=
EXTT5=
EXTT6=
EXTT7=
EXTT8=
EXTT9=
EXTT10=
EXTT11=
EXTT12=
EXTT13=
EXTT14=
EXTT15=
EXTT16=
EXTT17=
EXTT18=
EXTT19=
EXTT20=
EXTT21=
EXTT22=
EXTT23=
EXTT24=
EXTT25=
EXTT26=
EXTT27=
PLAYORDER=
